<?xml version="1.0" encoding="UTF-8"?>
<svg width="160px" height="46px" viewBox="0 0 160 46" version="1.1" xmlns="http://www.w3.org/2000/svg" xmlns:xlink="http://www.w3.org/1999/xlink">
    <title>D4A878EE-4F57-42B4-90D5-5F7CE03804EE@1.00x</title>
    <g id="Symbols" stroke="none" stroke-width="1" fill="none" fill-rule="evenodd">
        <g id="1440-/-Header-white" transform="translate(-135.000000, -21.000000)" fill-rule="nonzero">
            <g id="Group-3" transform="translate(135.000000, 20.000000)">
                <g id="Horizontal---Full" transform="translate(0.000000, 1.000000)">
                    <rect id="Rectangle" fill="#143038" x="62.6458404" y="33.7403149" width="97.3303905" height="1"></rect>
                    <path d="M108.135144,39.589235 C108.494601,39.5805799 108.848039,39.6830449 109.147708,39.882787 C109.434715,40.0837499 109.660448,40.3610141 109.79966,40.6835694 C110.101196,41.4148166 110.101196,42.236566 109.79966,42.9678132 C109.660535,43.2915294 109.434861,43.5701386 109.147708,43.7726917 C108.846648,43.9745759 108.490805,44.0778346 108.129032,44.0682916 C107.771396,44.0795505 107.419593,43.9752268 107.125297,43.7706436 C107.052856,43.716696 106.984735,43.6571202 106.921562,43.5924644 L106.921562,43.5924644 L106.921562,45.8193631 L106.186078,45.8193631 L106.186078,39.7059731 L106.844143,39.7059731 L106.844143,40.1428877 C106.929059,40.0455067 107.025014,39.9584427 107.130051,39.8834697 C107.425688,39.6809887 107.777587,39.5779724 108.135144,39.589235 Z M154.008149,39.589235 C154.391379,39.5782353 154.769329,39.6810546 155.094737,39.884835 C155.398218,40.0911077 155.631645,40.3857909 155.763667,40.7293089 C155.912394,41.0904461 155.977589,41.5273606 155.957216,42.0263989 L155.957216,42.0263989 L155.957216,42.0468793 L152.753141,42.0468793 C152.780985,42.4325929 152.888964,42.7432118 153.073005,42.9691785 C153.289643,43.2333753 153.603396,43.3699111 154.005433,43.3699111 C154.254549,43.3757134 154.500257,43.3108886 154.714431,43.182857 C154.920479,43.0516425 155.08531,42.8644068 155.189813,42.642858 L155.189813,42.642858 L155.197963,42.625791 L155.899491,42.8688247 L155.889983,42.8899878 C155.737394,43.2500463 155.478537,43.5543445 155.148387,43.7617688 C154.815148,43.9678885 154.430632,44.0748772 154.039389,44.0703397 C153.65886,44.078987 153.283189,43.9831605 152.952801,43.793172 C152.64387,43.6085078 152.393329,43.3396097 152.230221,43.0176487 C152.051976,42.6575134 151.963416,42.2592458 151.972156,41.8570945 C151.962393,41.4419339 152.049374,41.0302335 152.226146,40.6548969 C152.383437,40.3297701 152.63021,40.056826 152.937182,39.8684507 C153.261592,39.6775544 153.632336,39.5808966 154.008149,39.589235 Z M122.027844,39.589235 C122.411097,39.5780318 122.789105,39.6808667 123.114431,39.884835 C123.4182,40.0905411 123.652096,40.3847423 123.78472,40.7279435 C123.933447,41.0897634 123.998642,41.5259952 123.978268,42.0250335 L123.978268,42.0250335 L123.978268,42.0455139 L120.773514,42.0455139 C120.802037,42.4312275 120.909338,42.7418464 121.094058,42.9678132 C121.310696,43.2320099 121.623769,43.3685457 122.025806,43.3685457 C122.274935,43.3744591 122.520673,43.3096264 122.734805,43.1814917 C122.94132,43.0508289 123.106285,42.8634401 123.210187,42.6414926 L123.210187,42.6414926 L123.218336,42.6244257 L123.919864,42.8674594 L123.911036,42.8886224 C123.758568,43.2489646 123.499395,43.5533565 123.168761,43.7604034 C122.835762,43.9665024 122.451469,44.0734947 122.060441,44.0689743 C121.679921,44.0775525 121.304268,43.9817306 120.973854,43.7918067 C120.665385,43.6067787 120.415152,43.3379592 120.251952,43.0162834 C120.073708,42.6561481 119.985148,42.2578804 119.993888,41.8557292 C119.984125,41.4405685 120.071106,41.0288682 120.247878,40.6535315 C120.404698,40.3283006 120.651292,40.0552927 120.958234,39.8670854 C121.282388,39.6769109 121.652619,39.5807368 122.027844,39.589235 Z M91.333107,39.589235 C91.7163602,39.5780318 92.0943682,39.6808667 92.4196944,39.884835 C92.7234634,40.0905411 92.9573595,40.3847423 93.089983,40.7279435 C93.2393888,41.0897634 93.3039049,41.5259952 93.2835314,42.0250335 L93.2835314,42.0250335 L93.2835314,42.0455139 L90.0787776,42.0455139 C90.1073005,42.4312275 90.214601,42.7418464 90.3993209,42.9678132 C90.6159593,43.2320099 90.9290323,43.3685457 91.3310696,43.3685457 C91.5801986,43.3744591 91.8259365,43.3096264 92.0400679,43.1814917 C92.2465829,43.0508289 92.4115485,42.8634401 92.5154499,42.6414926 L92.5154499,42.6414926 L92.5235993,42.6244257 L93.2251273,42.8674594 L93.2162988,42.8886224 C93.0635296,43.2487763 92.8044264,43.5530856 92.4740238,43.7604034 C92.1410701,43.9666062 91.7567467,44.073607 91.3657046,44.0689743 C90.9851838,44.0775525 90.6095308,43.9817306 90.2791171,43.7918067 C89.9706477,43.6067787 89.7204151,43.3379592 89.5572156,43.0162834 C89.3789707,42.6561481 89.2904107,42.2578804 89.2991511,41.8557292 C89.2893883,41.4405685 89.3763687,41.0288682 89.5531409,40.6535315 C89.7099612,40.3283006 89.9565552,40.0552927 90.2634975,39.8670854 C90.587651,39.6769109 90.9578817,39.5807368 91.333107,39.589235 Z M113.486587,39.8704988 C114.160772,39.4932623 114.981593,39.4955895 115.65365,39.8766429 C115.959311,40.0683941 116.203934,40.3441498 116.358574,40.6712812 C116.684031,41.4103982 116.684031,42.2532726 116.358574,42.9923896 C116.203514,43.318163 115.958898,43.5924895 115.65365,43.7829318 C115.325302,43.9787457 114.948731,44.0776409 114.567063,44.0682916 C114.185058,44.0782207 113.808148,43.9785259 113.480475,43.7808838 C113.174779,43.5884754 112.929823,43.3126385 112.774194,42.9855628 C112.605246,42.6226301 112.521153,42.2256473 112.528353,41.8250086 C112.520222,41.4216402 112.605794,41.0219249 112.778268,40.6576276 C112.935192,40.3329354 113.180888,40.0599032 113.486587,39.8704988 Z M83.8356537,39.5912831 C84.1759057,39.5818845 84.5136853,39.6519914 84.8224109,39.7960868 C85.0898819,39.9258157 85.3016598,40.1484031 85.4186757,40.422786 C85.4800875,40.5588692 85.51886,40.7041637 85.5334465,40.8528738 C85.5492816,41.0116627 85.5569884,41.1711649 85.5565553,41.330749 L85.5565553,41.330749 L85.5565553,43.9501882 L84.9025467,43.9501882 L84.9025467,43.3439693 C84.7739847,43.5297876 84.6083989,43.6867103 84.4162988,43.8047776 C84.0998507,43.986729 83.7396184,44.0774366 83.3752122,44.0669263 C83.1000934,44.07589 82.8271332,44.0153314 82.5813243,43.8907951 C82.3793752,43.7850572 82.211456,43.6238332 82.0971138,43.4258907 C81.8928527,43.0499311 81.8789812,42.5986416 82.0597623,42.2107222 C82.1452774,42.0469023 82.2690125,41.9063554 82.4203735,41.8011148 C82.5896018,41.68436 82.7768372,41.5964791 82.9745331,41.5410142 C83.1947438,41.4821412 83.4177801,41.4345202 83.6427844,41.3983343 C83.8906621,41.3560082 84.1426146,41.3205089 84.3898132,41.2877403 L84.3898132,41.2877403 L84.8339559,41.2276645 C84.8203735,40.9293338 84.7524618,40.6985883 84.6166384,40.5449856 C84.4665535,40.3702198 84.2010187,40.2821542 83.8275042,40.2821542 C83.5982134,40.2768183 83.3720542,40.3364343 83.1748727,40.4541893 C82.9811023,40.5807742 82.8413534,40.7755498 82.7830221,41.0003324 L82.7830221,41.0003324 L82.77691,41.0208128 L82.0828523,40.809865 L82.0882852,40.7900673 C82.1777596,40.4363941 82.3874973,40.1253301 82.6811545,39.9107768 C82.9724958,39.6984637 83.3602716,39.5912831 83.8356537,39.5912831 Z M144.543973,39.8704988 C145.218158,39.4932623 146.038978,39.4955895 146.711036,39.8766429 C147.015554,40.0679588 147.259406,40.3426949 147.413922,40.6685505 C147.739379,41.4076675 147.739379,42.2505419 147.413922,42.9896589 C147.258862,43.3154323 147.014246,43.5897588 146.708998,43.7802011 C146.38065,43.976015 146.004079,44.0749102 145.622411,44.0655609 C145.240406,44.07549 144.863496,43.9757952 144.535823,43.7781531 C144.231769,43.5859859 143.98807,43.3111858 143.832937,42.9855628 C143.663989,42.6226301 143.579896,42.2256473 143.587097,41.8250086 C143.578966,41.4216402 143.664537,41.0219249 143.837012,40.6576276 C143.993568,40.3331162 144.238775,40.0601031 144.543973,39.8704988 Z M74.579966,39.8704988 C75.254151,39.4932623 76.0749714,39.4955895 76.7470289,39.8766429 C77.0494655,40.0691409 77.2913255,40.3439921 77.4444822,40.6692331 C77.7699397,41.4083501 77.7699397,42.2512246 77.4444822,42.9903416 C77.2898942,43.3162171 77.045457,43.5906075 76.7402377,43.7808838 C76.0656425,44.1627291 75.2416581,44.1627291 74.5670628,43.7808838 C74.2655159,43.5877315 74.0242544,43.3130254 73.8709677,42.9882935 C73.5400232,42.2470201 73.5400232,41.3989011 73.8709677,40.6576276 C74.0279183,40.3327379 74.273894,40.0596561 74.579966,39.8704988 Z M140.291341,39.8745948 C140.988955,39.4785878 141.845731,39.495855 142.526995,39.9196517 C142.844546,40.1338187 143.07496,40.45557 143.176231,40.8262493 L143.176231,40.8262493 L143.182343,40.8467297 L142.4618,41.0651869 L142.455008,41.0460719 C142.375898,40.8198301 142.227551,40.6245815 142.031239,40.4883232 C141.733208,40.2912986 141.363429,40.2377701 141.022205,40.3422572 C140.680981,40.4467444 140.403686,40.6984155 140.265535,41.029005 C140.172635,41.2852895 140.12662,41.5563535 140.129711,41.8291047 C140.134465,42.2885476 140.244482,42.6674344 140.448896,42.9466501 C140.653311,43.2258658 140.962988,43.367863 141.370458,43.367863 C141.606441,43.3770196 141.839441,43.312382 142.037351,43.182857 C142.223172,43.048351 142.365006,42.8613359 142.444822,42.6455887 L142.444822,42.6455887 L142.443463,42.625791 L143.180985,42.8189892 L143.172835,42.8415176 C143.046447,43.210364 142.806125,43.5289656 142.486927,43.7508459 C142.152764,43.9669179 141.761519,44.0766033 141.364346,44.0655609 C140.941935,44.0655609 140.575212,43.9679378 140.277759,43.776105 C139.978385,43.5817342 139.740611,43.3052847 139.59253,42.9794187 C139.430663,42.6170035 139.348875,42.2236216 139.352801,41.826374 C139.348172,41.425988 139.432144,41.0295746 139.598642,40.6658197 C139.749932,40.3411853 139.990242,40.0666949 140.291341,39.8745948 Z M137.012564,39.5885524 C137.306287,39.5839952 137.598152,39.6361389 137.872326,39.7421551 C138.109083,39.8340146 138.319202,39.983982 138.483531,40.178387 C138.638618,40.3657038 138.735243,40.594877 138.76129,40.8371722 L138.76129,40.8371722 L138.76129,40.8569699 L138.014261,40.9935056 L138.014261,40.9716599 C137.985795,40.7623127 137.87091,40.5747074 137.697793,40.454872 C137.493737,40.3190289 137.253901,40.2476993 137.009168,40.2500683 C136.783525,40.2331063 136.55792,40.283451 136.360611,40.3947962 C136.210066,40.4753155 136.116221,40.6329824 136.116808,40.8044036 C136.114511,40.8956248 136.146523,40.9843612 136.206452,41.0528987 C136.304858,41.144363 136.422563,41.2122762 136.550764,41.2515583 C136.795643,41.3387151 137.045014,41.4125513 137.297793,41.4727463 C137.600577,41.5425318 137.894816,41.6455519 138.175212,41.7799518 C138.362533,41.86716 138.522659,42.0040523 138.63837,42.1759056 C138.734023,42.3471302 138.78101,42.5414937 138.774194,42.7377504 C138.774194,43.1480404 138.620034,43.4770917 138.320543,43.7105679 C138.021053,43.9440441 137.604075,44.0628302 137.080475,44.0628302 C136.579966,44.0628302 136.164346,43.9508709 135.843124,43.7303656 C135.524918,43.5150031 135.309382,43.1770342 135.247538,42.7964608 L135.247538,42.7964608 L135.247538,42.774615 L135.994567,42.6558289 L135.999321,42.6742612 C136.05283,42.8943569 136.189795,43.0847126 136.380985,43.2047028 C136.605583,43.3421577 136.865209,43.4107261 137.128014,43.401997 C137.405772,43.401997 137.627844,43.3426039 137.786757,43.2265485 C137.939702,43.1206763 138.028911,42.9441503 138.023769,42.7575481 C138.027824,42.6606254 138.000934,42.5649398 137.947029,42.4844765 C137.893379,42.4148432 137.790153,42.3479407 137.621732,42.2837689 C137.453311,42.219597 137.198642,42.1397236 136.859083,42.0468793 C136.558455,41.9729917 136.265552,41.8703494 135.98438,41.7403564 C135.799948,41.6587447 135.640528,41.5291257 135.522581,41.364883 C135.427345,41.2069497 135.380132,41.0244669 135.386757,40.8399029 C135.382088,40.6039491 135.453566,40.3728214 135.590492,40.1811177 C135.73798,39.9855844 135.935995,39.8344638 136.162988,39.7442032 C136.433001,39.6358174 136.721874,39.582893 137.012564,39.5885524 Z M87.634635,38.5385921 L87.6339559,39.7059731 L88.8964346,39.7059731 L88.8964346,40.3203842 L87.6353141,40.3203842 L87.6359932,42.4719354 C87.6368987,42.5750452 87.6387097,42.6692549 87.6414261,42.7507213 C87.6419393,42.8572002 87.6682806,42.9619465 87.7181664,43.0558788 C87.8062383,43.2145181 87.9661278,43.3196292 88.1460102,43.3371425 C88.3883207,43.3641825 88.6332282,43.3563668 88.8733447,43.3139314 L88.8733447,43.3139314 L88.8977929,43.3098353 L88.8977929,43.9474575 L88.8808149,43.9474575 C88.6731692,43.991892 88.4615323,44.014768 88.249236,44.0157254 L88.249236,44.0157254 L88.1419355,44.0157254 C87.9158822,44.0104563 87.6932127,43.9593731 87.4872666,43.865536 C87.2963173,43.7765271 87.1416495,43.6241818 87.049236,43.4340829 C86.9678684,43.2749708 86.9215437,43.1001091 86.9134126,42.921391 C86.9032258,42.7520866 86.9032258,42.5575231 86.9032258,42.3424793 L86.9032258,40.3203842 L86.0556876,40.3203842 L86.0556876,39.7059731 L86.9032258,39.7059731 L86.9032258,38.5385921 L87.634635,38.5385921 Z M66.5609508,39.6001579 C66.8012169,39.5939496 67.0401348,39.6381243 67.2624788,39.7298669 C67.4463326,39.8098994 67.6109827,39.9286222 67.7453311,40.0780332 C67.8716635,40.2194283 67.9737856,40.3809123 68.0475382,40.5559084 C68.121304,40.7283433 68.1746414,40.9089003 68.2064516,41.0938595 C68.2351225,41.2634915 68.2501118,41.4351749 68.2512733,41.607234 L68.2512733,41.607234 L68.2512733,43.9501882 L67.5096774,43.9501882 L67.5096774,41.8236432 C67.5102824,41.633007 67.4923132,41.4427694 67.4560272,41.2556544 C67.4237663,41.0829582 67.3631786,40.9168524 67.2767402,40.7641255 C67.1953446,40.6223387 67.0782287,40.5046086 66.9371817,40.422786 C66.770382,40.3331902 66.582866,40.2898354 66.3938879,40.2971731 C66.235651,40.2952567 66.0786333,40.3252002 65.9320883,40.3852387 C65.795216,40.4430233 65.6737806,40.5323559 65.5775891,40.6460221 C65.472319,40.7754799 65.3942341,40.9250372 65.3480475,41.0856673 C65.2895651,41.2904132 65.2618678,41.5027991 65.2658744,41.71578 L65.2658744,41.71578 L65.2658744,43.9542843 L64.5263158,43.9542843 L64.5263158,39.7087039 L65.188455,39.7087039 L65.188455,40.2118382 C65.3067608,40.0622476 65.4513041,39.9356873 65.6149406,39.8384129 C65.9031005,39.6746059 66.2300005,39.5922753 66.5609508,39.6001579 Z M159.976231,43.1459924 L159.976231,43.9515535 L159.174873,43.9515535 L159.174873,43.1459924 L159.976231,43.1459924 Z M130.023769,38.3051159 C130.080815,38.3051159 130.179966,38.309212 130.322581,38.309212 C130.458922,38.3111382 130.595011,38.3216264 130.730051,38.3406152 C131.134209,38.3850517 131.515452,38.551679 131.82343,38.8184905 C132.122019,39.0886061 132.349292,39.4289581 132.48489,39.8090577 C132.780073,40.6633139 132.780073,41.5926729 132.48489,42.4469291 C132.349737,42.8276194 132.122136,43.1683472 131.82275,43.438179 C131.514522,43.7045877 131.133408,43.8711583 130.729372,43.9160542 C130.594292,43.9346757 130.458226,43.9451622 130.321902,43.9474575 C130.178608,43.9515535 130.079457,43.9515535 130.025127,43.9515535 L128.285229,43.9515535 L128.285229,38.3051159 Z M101.153141,38.3051159 L101.153141,39.0055445 L98.3198642,39.0055445 L98.3198642,40.7177033 L100.688625,40.7177033 L100.688625,41.418132 L98.3198642,41.418132 L98.3198642,43.2511249 L101.153141,43.2511249 L101.153141,43.9515535 L97.5877759,43.9515535 L97.5877759,38.3051159 L101.153141,38.3051159 Z M134.364007,39.7059731 L134.364007,43.9515535 L133.632598,43.9515535 L133.632598,39.7059731 L134.364007,39.7059731 Z M78.6940577,39.7059731 L78.6988115,39.7203094 L79.8519525,42.9828321 L81.0057725,39.7059731 L81.7521222,39.7059731 L81.7419355,39.7346457 L80.2186757,43.9515535 L79.4845501,43.9515535 L79.4797963,43.9372173 L77.9517827,39.7059731 L78.6940577,39.7059731 Z M158.556197,39.680714 C158.691589,39.6722298 158.8275,39.6821035 158.960272,39.7100692 L158.960272,39.7100692 L158.97725,39.7100692 L158.97725,40.4043537 L158.950764,40.3975269 C158.797287,40.3613853 158.638724,40.352376 158.482173,40.3709024 C158.312214,40.3891598 158.150082,40.4522802 158.012224,40.5538604 C157.886016,40.644667 157.781601,40.7626912 157.706621,40.899296 C157.633335,41.0357805 157.582644,41.1833492 157.556537,41.3362105 C157.527824,41.4961584 157.513505,41.6583815 157.513752,41.8209125 L157.513752,41.8209125 L157.513752,43.9522362 L156.778947,43.9522362 L156.778947,39.7066558 L157.436333,39.7066558 L157.436333,40.3210669 C157.452632,40.2951251 157.470289,40.2678179 157.489304,40.2411934 C157.652656,40.0221868 157.87623,39.8560594 158.132428,39.7633182 C158.269659,39.7179494 158.412043,39.6901948 158.556197,39.680714 Z M63.4125637,38.3051159 L63.4125637,43.9515535 L62.6811545,43.9515535 L62.6811545,38.3051159 L63.4125637,38.3051159 Z M94.8747029,43.1459924 L94.8747029,43.9515535 L94.0733447,43.9515535 L94.0733447,43.1459924 L94.8747029,43.1459924 Z M102.462479,39.7059731 L103.597963,41.2324433 L104.721222,39.7059731 L105.595246,39.7059731 L105.570119,39.7401071 L104.01562,41.8052109 L105.633956,43.9515535 L104.756537,43.9515535 L103.597963,42.3779786 L102.431919,43.9515535 L101.55382,43.9515535 L101.579626,43.9174196 L103.168761,41.8052109 L101.588455,39.7059731 L102.462479,39.7059731 Z M148.658065,39.7059731 L148.662818,39.7203094 L149.815959,42.9828321 L150.970458,39.7059731 L151.716129,39.7059731 L151.705942,39.7346457 L150.183362,43.9515535 L149.449236,43.9515535 L149.443803,43.9372173 L147.916469,39.7059731 L148.658065,39.7059731 Z M119.189813,39.680714 C119.325205,39.6722131 119.461119,39.682087 119.593888,39.7100692 L119.593888,39.7100692 L119.610866,39.7100692 L119.610866,40.4043537 L119.58438,40.3975269 C119.430904,40.3613853 119.27234,40.352376 119.115789,40.3709024 C118.94583,40.3891598 118.783698,40.4522802 118.64584,40.5538604 C118.5198,40.6448552 118.415423,40.7628374 118.340238,40.899296 C118.267029,41.0358146 118.216342,41.1833703 118.190153,41.3362105 C118.161668,41.4961792 118.147576,41.658402 118.148048,41.8209125 L118.148048,41.8209125 L118.148048,43.9515535 L117.412564,43.9515535 L117.412564,39.7059731 L118.069949,39.7059731 L118.069949,40.3203842 C118.086248,40.2951251 118.103905,40.2678179 118.12292,40.2411934 C118.286045,40.0219569 118.509695,39.8557735 118.766044,39.7633182 C118.903275,39.7179494 119.045659,39.6901948 119.189813,39.680714 Z M125.568761,43.1459924 L125.568761,43.9515535 L124.767402,43.9515535 L124.767402,43.1459924 L125.568761,43.1459924 Z M111.644143,38.1883778 L111.644143,43.9515535 L110.912733,43.9515535 L110.912733,38.1883778 L111.644143,38.1883778 Z M71.2393888,39.5953792 C71.4809087,39.5902212 71.7208202,39.6360365 71.9436333,39.7298669 C72.1276892,39.8098891 72.2925632,39.9286065 72.4271647,40.0780332 C72.5532783,40.219595 72.6553762,40.3810407 72.7293718,40.5559084 C72.8028286,40.7284556 72.8561552,40.9089757 72.8882852,41.0938595 C72.9166768,41.2635275 72.9316642,41.4351884 72.933107,41.607234 L72.933107,41.607234 L72.933107,43.9501882 L72.1935484,43.9501882 L72.1935484,41.8236432 C72.1938493,41.6330211 72.1758829,41.442813 72.1398981,41.2556544 C72.107516,41.0829918 72.0469355,40.9169056 71.9606112,40.7641255 C71.8792155,40.6223387 71.7620997,40.5046086 71.6210526,40.422786 C71.4542529,40.3331902 71.266737,40.2898354 71.0777589,40.2971731 C70.919522,40.2952567 70.7625043,40.3252002 70.6159593,40.3852387 C70.4791622,40.4431569 70.3577555,40.5324684 70.2614601,40.6460221 C70.1556769,40.7751381 70.0775339,40.9248069 70.0319185,41.0856673 C69.9731866,41.2903741 69.9452599,41.5027637 69.9490662,41.71578 L69.9490662,41.71578 L69.9490662,43.9495055 L69.2054329,43.9495055 L69.2054329,39.7039251 L69.866893,39.7039251 L69.866893,40.2070595 C69.9854667,40.057469 70.130232,39.9309159 70.2940577,39.8336341 C70.5820185,39.6699468 70.9086676,39.5876204 71.2393888,39.5953792 Z M84.8264856,41.8632386 L84.7544992,41.8741615 C84.6451613,41.8898631 84.5358234,41.9055647 84.4285229,41.9192183 C84.2098472,41.9478908 84.0033956,41.9779287 83.8132428,42.0086492 C83.6385078,42.0361392 83.4654977,42.0737491 83.2950764,42.1212913 C83.1856416,42.1551817 83.0802084,42.2009641 82.9806452,42.2578271 C82.8881287,42.3113013 82.8085704,42.3847482 82.747708,42.4728709 C82.6872978,42.5673702 82.6567567,42.6780376 82.6601019,42.7903166 C82.6595722,42.9012977 82.6878989,43.0104918 82.742275,43.1070797 C82.8039817,43.2125766 82.8951266,43.2975533 83.0044143,43.3514787 C83.1528884,43.4213539 83.3160284,43.4539187 83.4797963,43.4463711 C83.6986734,43.4516273 83.9158537,43.4065625 84.1147708,43.3146141 C84.2839202,43.2342259 84.43188,43.1149566 84.5466893,42.9664478 C84.6533136,42.8280242 84.7263309,42.666497 84.7599321,42.4947167 L84.7599321,42.4947167 L84.7914404,42.3542164 C84.8087554,42.2598275 84.8186684,42.1641417 84.8210526,42.0680423 C84.8264856,41.9915823 84.8264856,41.9239971 84.8264856,41.8632386 L84.8264856,41.8632386 Z M108.027165,40.2691833 C107.791519,40.2601119 107.55941,40.3289347 107.366384,40.4651121 C107.185728,40.604995 107.049556,40.794785 106.974533,41.0112553 C106.802504,41.5392763 106.802504,42.1086929 106.974533,42.6367139 L106.974533,42.6367139 C107.046399,42.8573066 107.184,43.0507672 107.367742,43.1924145 C107.566178,43.3321294 107.804794,43.4024105 108.046859,43.3924395 C108.286776,43.4013748 108.522758,43.3292717 108.717148,43.1876358 C108.90101,43.0424786 109.040175,42.847904 109.118506,42.6264737 C109.211514,42.3704546 109.257534,42.0995943 109.254329,41.8270566 C109.257403,41.5563086 109.211377,41.2872631 109.118506,41.033101 C109.039543,40.812026 108.89963,40.618103 108.71511,40.473987 C108.514682,40.331024 108.272714,40.2589891 108.027165,40.2691833 Z M145.614941,40.2896636 C145.364731,40.2794881 145.117528,40.3474561 144.907301,40.4842271 C144.718643,40.6182827 144.574335,40.8061537 144.493039,41.0235435 C144.397562,41.2796086 144.351466,41.5516084 144.357216,41.8250086 C144.357216,42.289913 144.467233,42.6694825 144.678438,42.9480155 C144.889643,43.2265485 145.193888,43.367863 145.617657,43.367863 C146.041426,43.367863 146.359253,43.2258658 146.568421,42.940506 C146.777589,42.6551462 146.883531,42.2796728 146.883531,41.8250086 C146.883531,41.3601042 146.771477,40.9812174 146.562309,40.7054151 C146.353141,40.4296128 146.033956,40.2896636 145.614941,40.2896636 Z M75.6516129,40.2896636 C75.4012052,40.2796154 75.1538225,40.3475673 74.9432937,40.4842271 C74.7550992,40.6187674 74.6109117,40.8064813 74.5290323,41.0235435 C74.4335713,41.279613 74.3874763,41.5516097 74.3932088,41.8250086 C74.3932088,42.289913 74.5018676,42.6694825 74.7137521,42.9480155 C74.9256367,43.2265485 75.2298812,43.367863 75.6536503,43.367863 C76.0774194,43.367863 76.3952462,43.2258658 76.6044143,42.940506 C76.8135823,42.6551462 76.9195246,42.2796728 76.9195246,41.8250086 C76.9195246,41.3601042 76.8074703,40.9812174 76.5983022,40.7054151 C76.3891341,40.4296128 76.0706282,40.2896636 75.6516129,40.2896636 Z M114.558234,40.2896636 C114.308025,40.2794881 114.060821,40.3474561 113.850594,40.4842271 C113.662004,40.6185175 113.517535,40.8062903 113.435654,41.0235435 C113.340512,41.2796995 113.294427,41.5516343 113.29983,41.8250086 C113.29983,42.289913 113.409847,42.6694825 113.621053,42.9480155 C113.832258,43.2265485 114.136503,43.367863 114.560272,43.367863 C114.984041,43.367863 115.301868,43.2258658 115.511036,42.940506 C115.720204,42.6551462 115.826146,42.2796728 115.826146,41.8250086 L115.826146,41.8250086 C115.828862,41.3601042 115.721562,40.9812174 115.508998,40.7054151 C115.296435,40.4296128 114.97725,40.2896636 114.558234,40.2896636 Z M130.120003,39.0092613 L129.032258,39.0089579 L129.032258,43.2436155 L130.024448,43.2436155 C130.123599,43.2436155 130.233616,43.2408848 130.352462,43.234058 C130.458053,43.2294392 130.563276,43.218497 130.667572,43.2012894 C130.944258,43.1569604 131.199336,43.0240841 131.394907,42.8224026 C131.587123,42.6121809 131.726796,42.3589824 131.802377,42.0837439 L131.802377,42.0837439 L131.860691,41.8488177 C131.910553,41.612092 131.934995,41.3704303 131.933447,41.1279934 C131.935916,40.8002186 131.890614,40.4738474 131.798981,40.159272 C131.72132,39.8849341 131.579781,39.6331333 131.386078,39.4247094 C131.1913,39.226039 130.938277,39.0953947 130.664177,39.0519667 C130.559098,39.0318669 130.452591,39.0202244 130.345671,39.0171501 C130.224788,39.0089579 130.114771,39.0089579 130.021053,39.0089579 Z M91.3568761,40.2582604 C90.9398981,40.2582604 90.6186757,40.3941135 90.4020374,40.6624064 C90.230091,40.8912138 90.1245482,41.1634252 90.0971138,41.4488525 L90.0971138,41.4488525 L92.5263158,41.4488525 C92.486927,41.0965902 92.3898132,40.8221532 92.2383701,40.6296378 C92.0427844,40.3804599 91.7487267,40.254847 91.3568761,40.2582604 Z M154.031919,40.254847 C153.614941,40.254847 153.293718,40.3907001 153.07708,40.658993 C152.905008,40.8877301 152.799451,41.1599784 152.772156,41.4454391 L152.772156,41.4454391 L155.201358,41.4454391 C155.16129,41.0972728 155.064856,40.8242013 154.914771,40.6296378 C154.717148,40.3804599 154.421053,40.254847 154.031919,40.254847 Z M122.052292,40.254847 C121.634635,40.254847 121.313413,40.3907001 121.096774,40.658993 C120.924828,40.8878004 120.819285,41.1600118 120.791851,41.4454391 L120.791851,41.4454391 L123.221053,41.4454391 C123.181664,41.0972728 123.08455,40.8242013 122.935144,40.6296378 C122.737521,40.3804599 122.440747,40.254847 122.052292,40.254847 Z" id="Combined-Shape" fill="#009932"></path>
                    <rect id="Rectangle" fill="#049948" x="133.632598" y="38.2464055" width="1" height="1"></rect>
                    <path d="M84.6859083,21.4743491 L84.6859083,28.5940079 L83.2896435,28.5940079 L83.2896435,27.8014176 C83.10686,28.0188527 82.8923058,28.2071407 82.6533107,28.359849 C82.198755,28.6520356 81.6393888,28.7981289 80.9752122,28.7981289 C80.4509338,28.7976737 80.0183362,28.7098357 79.6774194,28.5346148 C79.357577,28.377025 79.07858,28.1468138 78.8624788,27.862176 C78.6662929,27.5994641 78.5154622,27.3054517 78.4162988,26.992443 C78.3254344,26.7083299 78.2628747,26.4158446 78.2295416,26.1192967 C78.2010187,25.8444046 78.1867572,25.6213961 78.1867572,25.4502713 L78.1867572,25.4502713 L78.1867572,21.4763971 L79.7867572,21.4763971 L79.7867572,24.9034455 C79.7883157,25.1512295 79.8035059,25.3987372 79.8322581,25.6448348 C79.8628586,25.9177309 79.9347697,26.1843228 80.0455008,26.435377 C80.1538003,26.6838584 80.3258248,26.8989566 80.5439728,27.0586629 C80.7644595,27.2211405 81.0628183,27.3023793 81.4390492,27.3023793 C81.6418064,27.3018304 81.8431477,27.2684048 82.0353141,27.2033908 C82.2377332,27.1335288 82.4208645,27.0165709 82.5697793,26.8620514 C82.7459617,26.6734112 82.8771694,26.4469705 82.9534805,26.1998528 C83.0585504,25.8541083 83.1071719,25.4935285 83.0974533,25.1321429 L83.0974533,25.1321429 L83.0994907,21.4743491 L84.6859083,21.4743491 Z M73.0804754,21.2797615 C73.7926429,21.27751 74.4131296,21.4368017 74.9419355,21.7576608 C75.4691922,22.0754382 75.8970001,22.5357686 76.1765705,23.0861541 C76.4690436,23.6464059 76.6155065,24.2956336 76.6159603,25.0338371 C76.616412,25.7720406 76.4688172,26.4233164 76.1731749,26.9876643 C75.8928591,27.5366751 75.4648488,27.9955508 74.9378608,28.3120615 C74.4095076,28.630645 73.7910583,28.7899367 73.0825127,28.7899367 C72.3739672,28.7899367 71.7555178,28.630645 71.2271647,28.3120615 C70.7012141,27.9943534 70.2751473,27.5338702 69.9979626,26.9835682 C69.7073005,26.4196754 69.5619694,25.7706753 69.5619694,25.0365678 C69.5624222,24.2897171 69.7109225,23.635028 70.0074703,23.0725005 C70.2903292,22.5255709 70.7196017,22.0689831 71.2468591,21.7542475 C71.773854,21.4379395 72.3850594,21.2797615 73.0804754,21.2797615 Z M101.388115,19.1027224 L101.388115,28.5919598 L99.9918506,28.5919598 L99.9918506,28.0669797 C99.9029628,28.149093 99.8088164,28.2252612 99.710017,28.2949945 C99.2423316,28.6245009 98.6632711,28.789255 97.9728353,28.789255 C97.3213356,28.7897092 96.7531409,28.624956 96.2682513,28.2949945 C95.7773547,27.9588894 95.3874596,27.4939919 95.1409168,26.9507996 C94.8667571,26.3496466 94.7300758,25.6943807 94.7409168,25.0331545 C94.7409168,24.3127006 94.875382,23.6700721 95.1443124,23.1052691 C95.3941613,22.5619257 95.7891256,22.0989536 96.2852292,21.767901 C96.7723826,21.4402151 97.3537068,21.2763722 98.029202,21.2763722 C98.7046972,21.2763722 99.2706282,21.4402151 99.7269949,21.767901 L99.7269949,21.767901 L99.7949066,21.82115 L99.7955857,19.1027224 L101.388115,19.1027224 Z M124.306282,21.2797615 C125.018902,21.27751 125.639615,21.4368017 126.168421,21.7576608 C126.695217,22.0754967 127.122737,22.5355336 127.402377,23.0854714 C127.695303,23.6461784 127.841766,24.2956336 127.841766,25.0338371 C127.841766,25.7720406 127.694397,26.4233164 127.39966,26.9876643 C127.11907,27.5367016 126.690837,27.995564 126.163667,28.3120615 C125.634409,28.630645 125.015959,28.7899367 124.308319,28.7899367 C123.600679,28.7899367 122.98223,28.630645 122.452971,28.3120615 C121.927021,27.9943534 121.500954,27.5338702 121.223769,26.9835682 C120.933107,26.4196754 120.787776,25.7706753 120.787776,25.0365678 C120.787776,24.2897171 120.936503,23.635028 121.233956,23.0725005 C121.516362,22.5254698 121.945453,22.0688248 122.472666,21.7542475 C123.000113,21.4379395 123.611319,21.2797615 124.306282,21.2797615 Z M106.339559,21.2763722 C106.908682,21.2651606 107.474113,21.3706169 108.001358,21.5863084 C108.468115,21.7820072 108.847076,22.1432768 109.066214,22.601452 C109.189153,22.8393023 109.266774,23.0981607 109.295076,23.3646871 C109.322507,23.6485156 109.335654,23.9335561 109.334465,24.2187185 L109.334465,24.2187185 L109.334465,28.5878637 L107.951104,28.5878637 L107.951104,27.6286998 C107.712522,27.9528987 107.410164,28.2243104 107.062818,28.4260688 C106.636333,28.6654616 106.104358,28.785158 105.466893,28.785158 C104.955744,28.785158 104.52292,28.6875349 104.168421,28.4922887 C103.832465,28.3139195 103.554023,28.0430151 103.365705,27.711304 C103.183667,27.3829958 103.090031,27.0126079 103.094058,26.6367673 C103.089244,26.3198862 103.147188,26.0052082 103.264516,25.7110546 C103.379525,25.4346403 103.559411,25.1903336 103.788795,24.9990205 C104.061868,24.779502 104.373236,24.6130467 104.706961,24.5081743 C105.034996,24.404993 105.368795,24.3213336 105.706621,24.2576312 C106.088738,24.1852672 106.503905,24.1169993 106.952122,24.0528275 C107.222864,24.0145975 107.500849,23.9743194 107.786078,23.9319933 C107.757555,23.5585679 107.652292,23.2745735 107.466893,23.0806927 C107.24369,22.8481267 106.867912,22.7318437 106.339559,22.7318437 C106.018008,22.7322883 105.7011,22.809007 105.414601,22.9557624 C105.1176,23.1059518 104.910017,23.3630942 104.791851,23.7271896 L104.791851,23.7271896 L103.350085,23.2718428 C103.511557,22.6894109 103.863768,22.1787689 104.349745,21.8225153 C104.840973,21.4584199 105.504244,21.2763722 106.339559,21.2763722 Z M113.371138,19.4973108 L113.371138,21.4743491 L115.449915,21.4743491 L115.449915,22.7195555 L113.369779,22.7195555 L113.369779,25.5936339 C113.369779,25.8794488 113.373175,26.1297644 113.379966,26.3445807 C113.378675,26.5291663 113.425504,26.7108722 113.515789,26.8716089 C113.672892,27.1351229 113.924165,27.282354 114.26961,27.3133021 C114.663741,27.3419081 115.059845,27.3242672 115.449915,27.2607359 L115.449915,27.2607359 L115.449915,28.5919598 C114.997198,28.678314 114.536757,28.7169807 114.076061,28.7073326 C113.66273,28.7035421 113.254137,28.6184262 112.873345,28.4567894 C112.528439,28.3089692 112.243891,28.0474876 112.066553,27.7154 C111.909797,27.4253234 111.822373,27.1025439 111.811205,26.7726204 C111.802603,26.4522164 111.798302,26.0899415 111.798302,25.6857955 L111.798302,22.7195555 L110.512733,22.7195555 L110.512733,21.4770798 L111.798302,21.4770798 L111.798302,19.4973108 L113.371138,19.4973108 Z M90.4903226,21.2688627 C91.014601,21.2693178 91.4471986,21.3571559 91.7881154,21.5323768 C92.1080934,21.6897545 92.3871353,21.9200027 92.603056,22.2048156 C92.7992419,22.4675275 92.9500726,22.7615399 93.049236,23.0745485 C93.1395537,23.3591607 93.2014327,23.652112 93.2339559,23.9490603 C93.262026,24.2239523 93.2760611,24.4469608 93.2760611,24.6180856 L93.2760611,24.6180856 L93.2760611,28.5899118 L91.6767402,28.5899118 L91.6767402,25.1628635 C91.6751182,24.9139264 91.659701,24.6652736 91.6305603,24.4180607 C91.6002465,24.1462855 91.5285548,23.8808093 91.4179966,23.6309319 C91.3098943,23.3823304 91.1378317,23.1671844 90.9195246,23.007646 C90.6990379,22.8451684 90.4006791,22.7639296 90.0244482,22.7639296 C89.8216593,22.7640925 89.6202564,22.7975283 89.4281834,22.8629181 C89.2256856,22.9326157 89.0425183,23.0495966 88.8937182,23.2042575 C88.7180896,23.3919977 88.5869241,23.6171988 88.510017,23.8630427 C88.4140351,24.1420309 88.3660441,24.499072 88.3660441,24.934166 L88.3660441,24.934166 L88.3660441,28.5919598 L86.7667233,28.5919598 L86.7667233,21.4743491 L88.1758913,21.4743491 L88.1758913,22.265574 C88.3585878,22.0483099 88.572891,21.8600413 88.811545,21.7071426 C89.2661007,21.414956 89.8256933,21.2688627 90.4903226,21.2688627 Z M118.950085,21.4743491 L118.950085,28.5919598 L117.370458,28.5919598 L117.370458,21.4743491 L118.950085,21.4743491 Z M68.7076401,19.1020397 L68.7076401,20.689951 L64.6037351,20.689951 L64.6037351,23.0561162 L67.9205433,23.0561162 L67.9205433,24.6378833 L64.6037351,24.6378833 L64.6037351,28.5919598 L63.0234295,28.5919598 L63.0234295,19.1020397 L68.7076401,19.1020397 Z M133.252971,21.2688627 C133.77725,21.2693178 134.209847,21.3571559 134.550764,21.5323768 C134.870742,21.6897545 135.149784,21.9200027 135.365705,22.2048156 C135.56189,22.4675275 135.712721,22.7615399 135.811885,23.0745485 C135.902202,23.3591607 135.964081,23.652112 135.996604,23.9490603 C136.025127,24.2239523 136.039389,24.4469608 136.039389,24.6180856 L136.039389,24.6180856 L136.039389,28.5899118 L134.439389,28.5899118 L134.439389,25.1628635 C134.438018,24.9139383 134.422827,24.665284 134.393888,24.4180607 C134.363022,24.1463137 134.291114,23.8808868 134.180645,23.6309319 C134.072543,23.3823304 133.90048,23.1671844 133.682173,23.007646 C133.461686,22.8451684 133.163328,22.7639296 132.787097,22.7639296 C132.584312,22.7641413 132.382917,22.7975757 132.190832,22.8629181 C131.988334,22.9326157 131.805167,23.0495966 131.656367,23.2042575 C131.480717,23.3918657 131.349749,23.6171263 131.273345,23.8630427 C131.17691,24.1420309 131.128693,24.499072 131.128693,24.934166 L131.128693,24.934166 L131.128693,28.5919598 L129.529372,28.5919598 L129.529372,21.4743491 L130.93854,21.4743491 L130.93854,22.265574 C131.121323,22.0481388 131.335878,21.8598509 131.574873,21.7071426 C132.029428,21.414956 132.588795,21.2688627 133.252971,21.2688627 Z M107.765705,25.2352274 C107.49202,25.2796016 107.245501,25.3191969 107.027504,25.3560616 C106.686587,25.4129515 106.393888,25.4666556 106.149406,25.5171738 C105.93005,25.561232 105.713303,25.6175262 105.50017,25.6857955 C105.335858,25.7419335 105.179488,25.8192667 105.034975,25.9158583 C104.916856,25.9946191 104.817209,26.098283 104.742954,26.2196505 C104.672997,26.3415231 104.637754,26.4803988 104.641087,26.6210657 C104.638032,26.7856598 104.683648,26.9474615 104.772156,27.0859701 C104.867675,27.2265743 105.00065,27.337298 105.155857,27.4054638 C105.353458,27.4904875 105.567168,27.5310305 105.782003,27.5242499 C106.098481,27.5333817 106.412692,27.4679188 106.699491,27.3330998 C106.932181,27.2219514 107.138855,27.0625855 107.305942,26.8654648 C107.438632,26.7121988 107.542008,26.5356066 107.610866,26.3445807 L107.610866,26.3445807 C107.696937,26.1232166 107.745447,25.8879449 107.752122,25.6496135 C107.758234,25.4932801 107.765705,25.3567443 107.765705,25.2352274 Z M98.2655348,22.6990751 C97.841313,22.6990751 97.491794,22.8032974 97.2169779,23.0117421 C96.9359171,23.2272392 96.7235039,23.5204832 96.6057725,23.8555333 C96.4705532,24.2325915 96.4038449,24.6310094 96.4088285,25.0317891 C96.4034003,25.4345406 96.4689271,25.8350792 96.6023769,26.2148717 C96.7157517,26.5465287 96.9218281,26.8383027 97.1959253,27.0552495 C97.4644029,27.2614185 97.8039615,27.3645031 98.214601,27.3645031 C98.6388229,27.3645031 98.9808715,27.26688 99.240747,27.0716338 C99.509651,26.8635219 99.7087252,26.5776386 99.8112054,26.2524191 L99.8112054,26.2524191 C100.049796,25.4569901 100.049796,24.6072708 99.8098472,23.8111591 C99.7083998,23.4879233 99.5130328,23.2026086 99.2488964,22.9919444 C98.9953594,22.7966982 98.6675722,22.6990751 98.2655348,22.6990751 Z M124.306282,22.7680257 C123.880702,22.7680257 123.532088,22.8636007 123.260441,23.0547509 C122.98243,23.2524645 122.770899,23.5305886 122.65399,23.8521199 C122.516459,24.2309155 122.449915,24.6320424 122.457725,25.0352025 C122.457725,25.7260736 122.613922,26.2763128 122.926316,26.6859202 C123.23871,27.0955276 123.698698,27.3003312 124.306282,27.3003312 C124.935144,27.3003312 125.40283,27.0893835 125.709338,26.6674879 C126.015393,26.2455923 126.168421,25.7008145 126.168421,25.0331545 C126.167968,24.3422834 126.012677,23.7920441 125.702547,23.3824367 C125.392417,22.9728294 124.926995,22.7680257 124.306282,22.7680257 Z M73.0804754,22.7680257 C72.6548953,22.7680257 72.3062818,22.8636007 72.034635,23.0547509 C71.7566238,23.2524645 71.5450921,23.5305886 71.4281834,23.8521199 C71.2904215,24.2308715 71.223647,24.6319997 71.2312394,25.0352025 C71.2316921,25.7260736 71.3881154,26.2763128 71.7005093,26.6859202 C72.0129032,27.0955276 72.4728919,27.3003312 73.0804754,27.3003312 C73.7097906,27.3003312 74.1774759,27.0893835 74.4835314,26.6674879 C74.7891341,26.2455923 74.9419365,25.7008145 74.9419365,25.0331545 C74.9423882,24.3422834 74.7873231,23.7920441 74.4767402,23.3824367 C74.1661573,22.9728294 73.7007357,22.7680257 73.0804754,22.7680257 Z M118.950085,18.9368314 L118.950085,20.3936683 L117.370458,20.3936683 L117.370458,18.9368314 L118.950085,18.9368314 Z M127.535484,7.75864628 C128.269836,7.75864628 128.893718,7.93113649 129.407131,8.27611692 C129.929319,8.63221433 130.329052,9.14207177 130.551443,9.73568452 C130.800453,10.3642043 130.894397,11.1044558 130.833277,11.9564391 L130.833277,11.9564391 L125.710017,11.9564391 C125.762083,12.4657176 125.911715,12.875325 126.158913,13.1852613 C126.473571,13.5807599 126.932428,13.7785093 127.535484,13.7785093 C127.88855,13.7880111 128.237205,13.697907 128.541935,13.5184086 C128.829502,13.3382633 129.056628,13.0754611 129.193888,12.7640483 L129.193888,12.7640483 L130.755857,13.2385102 C130.505082,13.8591975 130.065903,14.3845336 129.500849,14.7397212 C128.940521,15.0937799 128.291011,15.2790415 127.629202,15.2735762 C126.913865,15.273121 126.28455,15.1172427 125.741256,14.8059411 C125.206134,14.501228 124.766657,14.0518778 124.472666,13.5088511 C124.168874,12.955426 124.016978,12.318259 124.016978,11.59735 C124.016978,10.8200063 124.165705,10.1446092 124.463158,9.57115889 C124.74198,9.01732211 125.171551,8.55448443 125.701868,8.23652154 C126.229315,7.91793803 126.840521,7.75864628 127.535484,7.75864628 Z M112.016978,7.75864628 C112.75133,7.75864628 113.375212,7.93113649 113.888625,8.27611692 C114.410776,8.63208656 114.810322,9.14200918 115.032258,9.73568452 C115.281268,10.3642043 115.375212,11.1044558 115.314092,11.9564391 L115.314092,11.9564391 L110.192869,11.9564391 C110.244935,12.4657176 110.394341,12.875325 110.641087,13.1852613 C110.956197,13.5807599 111.41528,13.7785093 112.018336,13.7785093 C112.371382,13.7878286 112.719988,13.6977372 113.024788,13.5184086 C113.312354,13.3382633 113.53948,13.0754611 113.67674,12.7640483 L113.67674,12.7640483 L115.23871,13.2385102 C114.98631,13.856987 114.547088,14.3801792 113.983022,14.7342598 C113.42308,15.0903646 112.773275,15.2775385 112.110696,15.2736378 C111.395359,15.273121 110.766044,15.1172427 110.22275,14.8059411 C109.687628,14.501228 109.248151,14.0518778 108.95416,13.5088511 C108.650368,12.955426 108.498472,12.318259 108.498472,11.59735 C108.498472,10.8200063 108.646972,10.1446092 108.943973,9.57115889 C109.223225,9.01740424 109.652983,8.55461921 110.183362,8.23652154 C110.710357,7.91793803 111.321562,7.75864628 112.016978,7.75864628 Z M135.285569,7.75523139 C135.915337,7.75477776 136.46927,7.85808984 136.947368,8.06516913 C137.414403,8.26034379 137.793675,8.62143586 138.012903,9.07963005 C138.134788,9.31849026 138.211689,9.57794547 138.239728,9.84491315 C138.265988,10.1066067 138.279117,10.3910563 138.279117,10.6982618 L138.279117,10.6982618 L138.279117,15.0674071 L136.895756,15.0674071 L136.895756,14.1116566 C136.657017,14.4357109 136.354691,14.7070934 136.00747,14.9090256 C135.581437,15.1484184 135.049236,15.2681163 134.410866,15.2681163 C133.899264,15.2685699 133.466667,15.1707192 133.113073,14.9745628 C132.776643,14.7966084 132.497878,14.5256191 132.309677,14.1935781 C132.127637,13.8655184 132.033997,13.495349 132.038031,13.1197241 C132.032962,12.8028215 132.090915,12.4880934 132.208489,12.1940114 C132.323261,11.9174618 132.503186,11.673102 132.732767,11.4819773 C133.005418,11.2621972 133.316615,11.0957101 133.650255,10.9911311 C133.979339,10.8866932 134.314275,10.8018932 134.653311,10.7371745 C135.035427,10.6643555 135.450594,10.5960876 135.898812,10.5323709 C136.168421,10.4941408 136.446859,10.4531801 136.732088,10.410854 C136.704471,10.0376562 136.598302,9.75411685 136.413582,9.56023603 C136.190379,9.32721495 135.814375,9.21070441 135.285569,9.21070441 C134.964184,9.2113907 134.6475,9.28834534 134.36129,9.43530578 C134.06429,9.58504003 133.856706,9.84195488 133.73854,10.2060503 L133.73854,10.2060503 L132.296095,9.75138614 C132.457332,9.16865831 132.809576,8.65772755 133.295756,8.30137604 C133.787889,7.9372806 134.45116,7.75523139 135.285569,7.75523139 Z M79.7263158,7.75250067 C80.3560838,7.75204705 80.910017,7.85535913 81.3881154,8.06243841 C81.8551501,8.25761308 82.2344217,8.61870515 82.4536503,9.07689933 C82.5767981,9.31641311 82.6546313,9.57683211 82.6831919,9.84491315 C82.709451,10.1066067 82.7225806,10.3910563 82.7225806,10.6982618 L82.7225806,10.6982618 L82.7225806,15.0674071 L81.339219,15.0674071 L81.339219,14.1116566 C81.1004801,14.4357109 80.7981546,14.7070934 80.4509338,14.9090256 C80.024901,15.1484184 79.4922467,15.2681163 78.8529711,15.2681163 C78.3418223,15.2685699 77.9092247,15.1707192 77.5551783,14.9745628 C77.2201313,14.7951376 76.943046,14.523231 76.7565365,14.1908474 C76.5744956,13.8627877 76.4808559,13.4926183 76.4848896,13.1169934 C76.4798208,12.8000907 76.537774,12.4853627 76.655348,12.1912807 C76.7701199,11.9147311 76.9500446,11.6703713 77.1796265,11.4792466 C77.4522767,11.2594665 77.7634736,11.0929794 78.0971138,10.9884004 C78.4253787,10.8852189 78.7594034,10.8015597 79.0974533,10.7378572 C79.4795699,10.6650381 79.8947368,10.5967702 80.3429542,10.5330535 C80.6125637,10.4948235 80.8910017,10.4538628 81.1762309,10.4115367 C81.1486135,10.0383389 81.0424448,9.75479953 80.857725,9.56091871 C80.6345218,9.32789763 80.2585173,9.21138708 79.7297114,9.21138708 C79.4083264,9.21207338 79.091643,9.28902802 78.8054329,9.43598846 C78.5084324,9.58572271 78.3008489,9.84263755 78.1826825,10.206733 L78.1826825,10.206733 L76.7402377,9.75206881 C76.8998982,9.16857581 77.2509654,8.65641348 77.7365025,8.29864533 C78.2286361,7.93454989 78.8919072,7.75250067 79.7263158,7.75250067 Z M148.708998,7.75523288 C149.513526,7.75523288 150.194228,7.95844365 150.751104,8.36486519 C151.305257,8.7665202 151.693762,9.35840517 151.843124,10.0285538 L151.843124,10.0285538 L150.26961,10.4572762 C150.165206,10.1020145 149.951165,9.78931019 149.658404,9.5643321 C149.378932,9.35294767 149.037667,9.24059646 148.687946,9.24483835 C148.275042,9.24483835 147.935484,9.34246144 147.66927,9.53770762 C147.397666,9.74279934 147.193508,10.0250776 147.083192,10.3480475 C146.95103,10.722181 146.886628,11.1170936 146.893039,11.5140632 C146.892586,12.1890051 147.04335,12.7351483 147.345331,13.1524927 C147.647312,13.5698371 148.095303,13.7785093 148.689304,13.7785093 C149.109904,13.7785093 149.441087,13.6817964 149.682852,13.4883707 C149.924618,13.294945 150.107074,13.0161844 150.230221,12.652089 L150.230221,12.652089 L151.843124,13.0139088 C151.624448,13.739369 151.241879,14.296435 150.695416,14.6851069 C150.148953,15.0737788 149.480249,15.2681147 148.689304,15.2681147 C147.959027,15.2676596 147.336276,15.1040442 146.821053,14.7772686 C146.307828,14.4521112 145.897267,13.9868308 145.637351,13.4358044 C145.356572,12.8339072 145.214505,12.1760834 145.221732,11.5113325 C145.226259,10.7826865 145.369327,10.1359619 145.650934,9.57115889 C145.918634,9.02207705 146.335652,8.56050206 146.85365,8.23993494 C147.374307,7.91680023 147.992756,7.75523288 148.708998,7.75523288 Z M119.667912,7.7579636 C120.168279,7.74904037 120.665727,7.83639966 121.133447,8.01533356 C121.533164,8.16801897 121.888175,8.4194734 122.165705,8.74648272 C122.428659,9.06443752 122.596762,9.45068922 122.650594,9.86061477 L122.650594,9.86061477 L121.03837,10.1500706 C121.008993,9.86374934 120.861096,9.60307759 120.6309,9.43189239 C120.396831,9.25621634 120.085569,9.15745545 119.697114,9.13560972 C119.325637,9.11308132 119.026146,9.16701295 118.798642,9.30354874 C118.572269,9.43735382 118.459083,9.62509053 118.459083,9.86675888 C118.456293,9.99679465 118.505174,10.122586 118.594907,10.2162905 C118.686814,10.3132309 118.871534,10.4099438 119.149066,10.5064291 C119.426599,10.6029143 119.840634,10.7214729 120.391171,10.8621048 C120.954839,11.0068327 121.405999,11.1727237 121.744652,11.3597777 C122.083305,11.5468318 122.328014,11.7696127 122.478778,12.0281204 C122.637292,12.3161799 122.715648,12.64186 122.705603,12.9709001 C122.706055,13.6822515 122.447085,14.242731 121.928693,14.6523383 C121.4103,15.0619457 120.69451,15.2667494 119.781324,15.2667494 C118.907527,15.2662943 118.197397,15.0685449 117.650934,14.6735014 C117.104471,14.2784578 116.772156,13.7227572 116.65399,13.0063994 L116.65399,13.0063994 L118.266893,12.7558562 C118.340032,13.092376 118.5367,13.3888033 118.817657,13.5859938 C119.101528,13.7880668 119.459875,13.8891033 119.892699,13.8891033 C120.273458,13.8891033 120.567742,13.8133259 120.775552,13.6617712 C120.977543,13.5206794 121.094636,13.2862936 121.086587,13.039168 C121.09166,12.9005554 121.050286,12.7642449 120.9691,12.652089 C120.893039,12.5531005 120.725297,12.4575255 120.467912,12.3653638 C120.2103,12.2729746 119.814601,12.1564641 119.280815,12.0158322 C118.686361,11.8579058 118.214375,11.6876912 117.864856,11.5051884 C117.515337,11.3226855 117.264063,11.1062763 117.111036,10.8559607 C116.951524,10.580357 116.872006,10.2653453 116.881494,9.94663232 C116.87246,9.53256109 116.994189,9.12626241 117.229202,8.7860781 C117.474741,8.44536427 117.811193,8.18146529 118.19966,8.02489107 C118.614827,7.84693942 119.104244,7.7579636 119.667912,7.7579636 Z M143.585059,7.9231719 C143.801896,7.9076735 144.019792,7.91775478 144.234295,7.95320978 L144.234295,7.95320978 L144.234295,9.43530578 C143.998324,9.37158032 143.752802,9.35145622 143.509677,9.37591271 C143.249291,9.39390723 142.996711,9.47293095 142.772156,9.6066582 C142.563032,9.71704456 142.380579,9.87225583 142.237691,10.0613224 C142.097812,10.2501328 141.994385,10.4636302 141.932767,10.6907524 C141.865857,10.9388243 141.832956,11.1949187 141.834975,11.4519394 L141.834975,11.4519394 L141.834975,15.0701378 L140.248557,15.0701378 L140.248557,7.95320978 L141.644822,7.95320978 L141.644822,9.09260095 C141.698576,8.99539693 141.758697,8.90189145 141.824788,8.81270258 C141.96914,8.61971939 142.148104,8.45556058 142.352462,8.3286832 C142.531559,8.2081337 142.726848,8.11388478 142.932428,8.04878483 C143.144176,7.98076751 143.363293,7.93859379 143.585059,7.9231719 Z M74.2295416,8.04878483 C74.6497143,7.91427399 75.0955695,7.88152499 75.5307301,7.95320978 L75.5307301,7.95320978 L75.5307301,9.43598846 C75.2947634,9.37223304 75.0492362,9.35210849 74.8061121,9.37659539 C74.5457254,9.39458991 74.2931455,9.47361363 74.0685908,9.60734088 C73.8596627,9.71773562 73.6774328,9.87295397 73.5348048,10.0620051 C73.3946627,10.2506541 73.2912099,10.4642038 73.2298812,10.6914351 C73.1624387,10.9394141 73.1293032,11.1955512 73.1314092,11.4526221 L73.1314092,11.4526221 L73.1314092,15.0701378 L71.5449915,15.0701378 L71.5449915,7.95320978 L72.9412564,7.95320978 L72.9412564,9.09260095 C72.995255,8.99554449 73.055366,8.90205467 73.1212224,8.81270258 C73.2656439,8.61953526 73.4448676,8.45535001 73.6495756,8.3286832 C73.8285988,8.20800339 74.0239074,8.1137452 74.2295416,8.04878483 Z M92.3375212,7.74840609 C92.8617997,7.74840609 93.2943973,7.83647168 93.6353141,8.01260285 C93.9552613,8.16972155 94.2343105,8.39974201 94.4502547,8.68435893 C94.646342,8.94713291 94.7971638,9.24112793 94.8964346,9.55409192 C94.9872991,9.83820508 95.0498587,10.1306903 95.0831919,10.4272383 C95.1083248,10.6494007 95.1223775,10.8726886 95.1252971,11.0962637 L95.1252971,11.0962637 L95.1252971,15.0701378 L93.5239389,15.0687725 L93.5239389,11.6424068 C93.5223422,11.3934689 93.5069249,11.1448146 93.4777589,10.8976041 C93.4474498,10.6256084 93.3757593,10.3599065 93.2651952,10.1097926 C93.1570754,9.86138849 92.9850045,9.64646787 92.7667233,9.48718938 C92.5462366,9.32471179 92.2478778,9.243473 91.8716469,9.243473 C91.6689258,9.24378995 91.4675835,9.27698511 91.275382,9.34177876 C91.0730299,9.41178073 90.8899292,9.52871913 90.7409168,9.68311824 C90.5651748,9.87077306 90.4339932,10.0960018 90.3572156,10.3419034 C90.2612337,10.6208916 90.2132428,10.9779327 90.2132428,11.4130267 L90.2132428,11.4130267 L90.2132428,15.0701378 L88.6139219,15.0701378 L88.6139219,7.95320978 L90.02309,7.95320978 L90.02309,8.74511736 C90.2059711,8.52803592 90.420245,8.33979305 90.6587436,8.18668598 C91.1132994,7.89449939 91.6728919,7.74840609 92.3375212,7.74840609 Z M86.4,7.95320978 L86.4,15.0708205 L84.8203735,15.0708205 L84.8203735,7.95320978 L86.4,7.95320978 Z M103.877759,5.5815831 C103.970119,5.5815831 104.087606,5.58431382 104.232258,5.59114061 C104.366366,5.59690722 104.499971,5.61127268 104.632258,5.63414938 C105.178268,5.71698109 105.629428,5.89902881 105.985739,6.18029254 C106.339373,6.45804953 106.613138,6.82537587 106.778947,7.24458903 C106.956283,7.69886116 107.044158,8.18343344 107.037691,8.67138803 C107.038144,9.44463573 106.84369,10.1091099 106.454329,10.6648106 C106.200319,11.0246223 105.850219,11.3048457 105.444482,11.4731024 L105.444482,11.4731024 L107.188455,15.0701378 L105.398981,15.0701378 L103.798302,11.7557315 L101.557216,11.7557315 L101.557216,15.0708205 L99.9775891,15.0708205 L99.9775891,5.5815831 Z M66.7511036,5.58090042 C67.3903792,5.58090042 67.9137521,5.70924407 68.3212224,5.96593135 C68.7105897,6.20227401 69.0263099,6.54353612 69.2325976,6.95103708 C69.427539,7.33473707 69.529683,7.75925556 69.5307301,8.19009937 C69.5307301,8.71348657 69.4073571,9.15722789 69.1606112,9.52132333 C69.012886,9.74322328 68.8183506,9.92968876 68.5908319,10.0674665 C68.9586833,10.2116954 69.2776017,10.4590694 69.5096774,10.7801833 C69.8164186,11.2076629 69.9783173,11.722951 69.9714771,12.2499911 C69.9813225,12.7610532 69.8695613,13.2670842 69.6455008,13.725943 C69.4351705,14.1444154 69.1037017,14.4890469 68.6947368,14.7144621 C68.274137,14.9515793 67.7534805,15.0701378 67.1327674,15.0701378 L67.1327674,15.0701378 L63.0091681,15.0701378 L63.0091681,5.58090042 Z M154.812903,5.58090042 L154.812903,8.74511736 C154.995784,8.52803592 155.210058,8.33979305 155.448557,8.18668598 C155.903113,7.89449939 156.462705,7.74840609 157.127334,7.74840609 C157.651613,7.74840609 158.084211,7.83647168 158.425127,8.01260285 C158.745075,8.16972155 159.024124,8.39974201 159.240068,8.68435893 C159.436168,8.9470216 159.586782,9.24105862 159.685569,9.55409192 C159.776948,9.8381044 159.839742,10.130619 159.873005,10.4272383 C159.900849,10.7023579 159.91511,10.9228632 159.913073,11.0962637 L159.913073,15.0687725 L158.313752,15.0687725 L158.313752,11.6424068 C158.312155,11.3934689 158.296738,11.1448146 158.267572,10.8976041 C158.237346,10.6255144 158.165414,10.3597657 158.054329,10.1097926 C157.946455,9.86143533 157.774614,9.64650919 157.556537,9.48718938 C157.33605,9.32471179 157.037691,9.243473 156.66146,9.243473 C156.458734,9.24373021 156.257382,9.27692694 156.065195,9.34177876 C155.862843,9.41178073 155.679742,9.52871913 155.53073,9.68311824 C155.354988,9.87077306 155.223806,10.0960018 155.147029,10.3419034 C155.051047,10.6208916 155.003056,10.9779327 155.003056,11.4130267 L155.003056,11.4130267 L155.003056,15.0701378 L153.403056,15.0701378 L153.403056,5.58090042 L154.812903,5.58090042 Z M81.1524618,11.7140881 C80.879004,11.7582347 80.6331636,11.7982852 80.4149406,11.8342396 C80.0740238,11.8915846 79.7810979,11.9455163 79.536163,11.9960345 C79.3168439,12.039972 79.1001027,12.0960368 78.886927,12.1639735 C78.7226426,12.2204746 78.5662891,12.2980289 78.4217317,12.394719 C78.3038346,12.4732416 78.204407,12.5766853 78.1303905,12.6978285 C78.0604105,12.8199404 78.0251707,12.959041 78.0285229,13.0999264 C78.0253451,13.2645365 78.0709715,13.4263735 78.1595925,13.5648308 C78.2551109,13.705435 78.3880863,13.8161587 78.5432937,13.8843245 C78.7407116,13.9691012 78.9541963,14.0094123 79.1687606,14.002428 C79.4853838,14.0115515 79.7997619,13.9463358 80.086927,13.8119605 C80.319574,13.7004367 80.5262181,13.5408607 80.6933786,13.3436428 C80.8262006,13.1907288 80.9295972,13.0143337 80.9983022,12.8234414 C81.0852194,12.6015914 81.1327978,12.3661486 81.1388795,12.1277916 C81.1456706,11.9714581 81.1524618,11.8349223 81.1524618,11.7140881 Z M136.711715,11.7140881 C136.438257,11.7582347 136.192417,11.7982852 135.974194,11.8342396 C135.633729,11.8915846 135.340804,11.9455163 135.095416,11.9960345 C134.876097,12.039972 134.659356,12.0960368 134.44618,12.1639735 C134.281896,12.2204746 134.125542,12.2980289 133.980985,12.394719 C133.863088,12.4732416 133.76366,12.5766853 133.689643,12.6978285 C133.619663,12.8199404 133.584424,12.959041 133.587776,13.0999264 C133.584598,13.2645365 133.630224,13.4263735 133.718846,13.5648308 C133.814364,13.705435 133.947339,13.8161587 134.102547,13.8843245 C134.300187,13.9691567 134.513904,14.0094681 134.728693,14.002428 C135.045088,14.0114449 135.359221,13.9462318 135.64618,13.8119605 C135.878827,13.7004367 136.085471,13.5408607 136.252632,13.3436428 C136.385454,13.1907288 136.48885,13.0143337 136.557555,12.8234414 C136.644472,12.6015914 136.692051,12.3661486 136.698132,12.1277916 C136.704924,11.9714581 136.711715,11.8349223 136.711715,11.7140881 Z M66.9820034,10.8545953 L64.6091681,10.8545953 L64.6091681,13.5750709 L66.9337861,13.5750709 C67.1905467,13.5792832 67.4445857,13.5217018 67.6747029,13.4071319 C67.8869491,13.3005871 68.0650987,13.1361705 68.1887946,12.93267 L68.1887946,12.93267 C68.3205075,12.7113512 68.3852204,12.4587116 68.3782683,12.2028862 C68.3818105,11.9650983 68.3255115,11.7302674 68.214601,11.5202073 C68.1036816,11.3166537 67.9376843,11.1488389 67.7358234,11.0361879 C67.5048188,10.910044 67.2447935,10.8474049 66.9820034,10.8545953 L66.9820034,10.8545953 Z M127.606112,9.14789794 C126.956423,9.14789794 126.474477,9.34883311 126.160272,9.75070346 C125.96129,10.0087561 125.824788,10.3459995 125.752801,10.7556069 L125.752801,10.7556069 L129.232598,10.7556069 C129.175552,10.2961639 129.053311,9.93434409 128.864516,9.68175288 C128.598302,9.32584959 128.178834,9.14789794 127.606112,9.14789794 Z M112.081494,9.14584991 C111.43837,9.14789794 110.955518,9.34815043 110.636333,9.74865542 C110.437351,10.0067081 110.300849,10.3439515 110.228862,10.7535588 L110.228862,10.7535588 L113.708659,10.7535588 C113.650934,10.2941159 113.529372,9.93229606 113.340577,9.67970485 C113.073911,9.32380155 112.654216,9.14584991 112.081494,9.14584991 L112.081494,9.14584991 Z M103.812564,7.06982322 L101.557216,7.06982322 L101.557216,10.2729529 L103.812564,10.2729529 C103.903565,10.2729529 103.997963,10.2681741 104.107301,10.2592993 C104.209345,10.2522803 104.310392,10.2346644 104.408829,10.206733 C104.645619,10.1555549 104.861642,10.0340144 105.028862,9.85788405 C105.176771,9.69529347 105.286537,9.50143767 105.350085,9.29057784 C105.411802,9.08998262 105.443836,8.88135394 105.445161,8.67138803 C105.44369,8.46031546 105.411662,8.25058217 105.350085,8.04878483 C105.287189,7.83683347 105.17737,7.64194885 105.028862,7.47874791 C104.861888,7.3021645 104.64579,7.18034356 104.408829,7.12921628 C104.310478,7.10148642 104.209329,7.08499787 104.107301,7.0800634 C103.997963,7.06982322 103.90017,7.06982322 103.812564,7.06982322 L103.812564,7.06982322 Z M66.7300509,7.06163107 L64.6064516,7.06163107 L64.6091681,9.36840324 L66.7286927,9.36840324 C66.9398045,9.37240244 67.1489805,9.32731055 67.3398981,9.23664621 C67.5165563,9.15120587 67.6647212,9.0160197 67.7663837,8.8475192 C67.8764006,8.65567035 67.9307465,8.43667355 67.9232598,8.2153585 C67.9325126,7.9094377 67.8192348,7.6125836 67.6088285,7.391365 C67.3992077,7.17154238 67.1062818,7.06163107 66.7300509,7.06163107 L66.7300509,7.06163107 Z M86.4,5.39111568 L86.4,6.84795256 L84.8203735,6.84795256 L84.8203735,5.39111568 L86.4,5.39111568 Z" id="Combined-Shape" fill="#143038"></path>
                    <path d="M24.8285229,42.7316063 L24.3483871,42.5882437 C24.5256367,41.9874862 24.457725,41.515755 24.1398981,41.1471084 C22.8129032,39.6090327 17.8241087,40.3278937 17.7718166,40.3354031 C17.7195246,40.3429126 12.1881154,41.42018 9.72427844,36.0720731 C8.06926995,32.4804991 6.93242784,32.3344058 5.61629881,32.1657841 C4.7959253,32.0599689 3.8655348,31.9405001 2.78845501,30.9663172 C1.96196944,30.2153704 1.11986418,28.3933002 0.590152801,26.2025835 C-0.051845075,23.5393918 -0.169503393,20.7756898 0.243803056,18.0670984 C0.913412564,13.800355 3.31001698,7.99621855 10.9263158,4.57804504 C21.9572156,-0.372060028 39.1850594,-2.12244886 48.9208829,3.51716196 C53.5612903,6.20418631 56.1983022,10.2709048 56.7599321,15.6005794 C56.7877759,15.7924122 57.3711375,20.5397616 48.8998302,23.1250668 C42.3565365,25.1225854 42.3544992,27.1706222 42.3524618,29.1558526 C42.3524618,29.8931459 42.3524618,30.6577463 41.9938879,31.3697805 C41.0349745,33.290839 39.9212224,34.3933655 32.5582343,33.5058829 C27.6719864,32.9180963 26.8393888,34.7469932 26.1066214,36.361529 C25.6991511,37.2612998 25.3106961,38.1112351 24.2689304,38.3296924 C22.9663837,38.602764 19.4811545,38.1078217 15.8159593,36.1451197 C12.742275,34.4998635 8.67572156,31.3554442 6.75721562,25.7199295 C5.03089983,20.653769 5.29711375,16.0866468 7.51443124,12.5135052 C10.1589134,8.26041531 15.5517827,5.50785378 23.1089983,4.55824736 C28.6098472,3.86669358 34.5181664,4.18618733 39.7473684,5.45733553 C44.6308998,6.64451423 48.5677419,8.58741852 50.5494058,10.7863274 C51.744652,12.1127726 52.2152801,13.5259181 51.9076401,14.8728436 C50.9385399,19.1600674 48.5616299,19.673442 46.4651952,20.1294715 C45.5572156,20.3254004 44.6994907,20.5110891 43.9979626,20.9807722 C43.1151104,21.5719722 42.0081494,21.689393 40.9365025,21.7999869 C38.8991511,22.0163962 36.9691002,22.2205172 36.2988115,25.4181854 C35.95382,27.064807 35.083871,28.2908984 33.7120543,29.0623256 C31.1415959,30.5082396 27.3779287,29.9969131 24.9365025,29.1203533 C24.1731749,28.8472818 23.4628183,28.5332494 22.7762309,28.2328707 C22.1011885,27.93454 21.472326,27.6566897 20.8780985,27.4525687 C21.4272779,28.167106 21.7668364,28.8795952 21.8967742,29.5900364 C22.1229202,30.8331948 21.629202,31.7466193 21.1755518,32.2941278 C20.2512733,33.4096252 17.3113752,33.3809527 15.8431239,32.2415615 C14.7511036,31.3943569 14.6886248,30.11843 15.6658744,28.7401012 C16.8794567,27.0334038 18.1106961,26.5336828 19.4098472,26.6190177 C18.6112054,25.8871858 17.5144312,25.0870861 16.0142615,24.2357854 C12.6539898,22.3242844 10.742275,19.1156933 11.1449915,16.0545609 C11.385399,14.2318081 12.6988115,10.9385648 18.7986418,9.36430717 C27.3073005,7.16608095 38.7945671,8.22423332 41.9904924,11.4997269 C42.7524618,12.2807116 43.0091681,13.1477139 42.7524618,14.0754746 C41.3263158,19.2426716 38.3870968,19.673442 35.2455008,19.673442 C35.1680815,19.673442 35.0879457,19.673442 35.0037351,19.6645672 C34.3103565,21.4279269 33.0859083,22.9666853 31.5524618,23.4486566 C28.2533107,24.4849633 19.1103565,22.7830446 16.2662139,19.3525829 C15.3500849,18.2480084 15.1925297,17.0403493 15.8105263,15.8599974 C17.1803056,13.2426063 19.913073,10.8375283 22.4855688,11.3010674 C23.8811545,11.5536586 24.8074703,12.6766654 25.026146,14.3813148 C25.5341256,18.3347086 23.6448217,18.6821922 23.5640068,18.6924324 L23.4865874,18.1954421 L23.5252971,18.4439372 L23.4825127,18.1961248 C23.4974533,18.1961248 24.9697793,17.8732176 24.5297114,14.4461693 C24.3375212,12.9517851 23.5789474,12.0110535 22.3972835,11.7966923 C20.6315789,11.4778812 17.9517827,12.8507486 16.2539898,16.0941563 C15.7303905,17.0935983 15.8641766,18.0814347 16.6505942,19.0296758 C19.3025467,22.2287093 28.2349745,23.9647619 31.403056,22.9687333 C32.7008489,22.5591259 33.8444822,21.2135657 34.5154499,19.6044914 C33.3745331,19.4106106 31.8478778,18.822824 30.4597623,18.0213589 C29.5382003,17.489552 27.3820034,16.0975697 27.2550085,14.6571171 C27.1578947,13.5539079 28.2016978,12.7974996 30.3572156,12.4111033 C33.0675722,11.9229879 34.9358234,12.9313047 35.4811545,15.173905 C35.7663837,16.3467475 35.634635,17.8008536 35.1830221,19.1703076 L35.2455008,19.1703076 C38.301528,19.1703076 40.9344652,18.7770845 42.2696095,13.9430349 C42.4733447,13.2009629 42.260781,12.4984862 41.6332767,11.85472 C38.6010187,8.73829057 27.1402377,7.72792572 18.927674,9.8496919 C14.6179966,10.9624586 12.0319185,13.1893573 11.64618,16.1200981 C11.2706282,18.9750614 13.083871,21.991137 16.2641766,23.7968229 C17.9932088,24.7794254 19.331296,25.7654414 20.278438,26.7548708 C21.1429542,26.9596745 22.0387097,27.3556282 22.979966,27.7713797 C23.6590832,28.0710758 24.3599321,28.381012 25.1062818,28.6486222 C27.4499151,29.4896826 31.0465195,29.988721 33.4696095,28.6247284 C34.7096774,27.9277132 35.4974533,26.8142638 35.8105263,25.3164662 C36.5575552,21.7590262 38.8563667,21.5153098 40.8862479,21.3002659 C41.9436333,21.1883066 42.9426146,21.0824914 43.7222411,20.560242 C44.5018676,20.0379926 45.4057725,19.8420637 46.3619694,19.635212 C48.4074703,19.1935187 50.5229202,18.7361238 51.4207131,14.7622496 C51.6923599,13.5655134 51.2726655,12.3414701 50.1765705,11.1249362 C45.449236,5.87513505 32.4780985,3.89127002 23.170798,5.05796835 C15.7684211,5.98777708 10.5005093,8.65841713 7.93887946,12.7804326 C5.80101868,16.2204519 5.55517827,20.63875 7.22920204,25.5574519 C10.7008489,35.7566754 21.7242784,38.3508554 24.1643463,37.8367982 C24.9582343,37.6702245 25.2631579,37.0011991 25.6488964,36.1526292 C26.417657,34.4684602 27.3684211,32.3733185 32.6173175,33.0061619 C39.6556876,33.8547319 40.6859083,32.8696261 41.5463497,31.1438137 C41.8499151,30.5362295 41.8505942,29.8658387 41.8512733,29.15517 C41.8512733,27.0907488 41.8567063,24.7505254 48.7544992,22.6451435 C52.9650255,21.3589763 54.7850594,19.52257 55.5674024,18.2077303 C56.4054329,16.7993636 56.2648557,15.6749914 56.2628183,15.6633859 C55.7181664,10.4927755 53.1646859,6.55371793 48.6709677,3.9533938 C39.0730051,-1.60634357 22.0468591,0.13653579 11.1307301,5.03748798 C3.71952462,8.36418251 1.38879457,14.0017453 0.740237691,18.1449238 C-0.189473684,24.0617023 1.79762309,29.3934249 3.12393888,30.5922091 C4.08488964,31.4612595 4.85976231,31.5609306 5.68081494,31.6660631 C7.08319185,31.8462904 8.40747029,32.0169601 10.1792869,35.8604426 C12.4747029,40.843999 17.4736842,39.8834697 17.6855688,39.8397782 C17.9157895,39.8056443 23.0132428,39.0724471 24.5188455,40.8173745 C24.950764,41.3191435 25.055348,41.9629098 24.8285229,42.7316063 Z M19.1511036,27.1098638 C18.0787776,27.1098638 17.0886248,27.6123155 16.0794567,29.0316051 C15.2550085,30.1921593 15.2808149,31.1642941 16.1548387,31.8421943 C17.3976231,32.806137 20.0434635,32.8791836 20.7966044,31.9712206 C21.3370917,31.3408376 21.5621149,30.4970988 21.4078098,29.6794674 C21.2916808,29.0384319 20.9249576,28.1966887 20.0047538,27.2047562 C19.7241461,27.1440761 19.4381204,27.1122813 19.1511036,27.1098638 L19.1511036,27.1098638 Z M31.6468591,12.7872594 C31.2451687,12.7903011 30.8445257,12.8289079 30.4495756,12.9026322 C29.1735144,13.1320123 27.6713073,13.6139836 27.7589134,14.6093295 C27.9117148,16.3706412 32.3219015,18.7641136 34.7028862,19.1204721 C35.1429542,17.8561506 35.2889643,16.4778218 34.9996604,15.2879124 C34.6016978,13.653579 33.4268251,12.7872594 31.6468591,12.7872594 Z" id="Shape" fill="#143038"></path>
                    <path d="M25.7113754,18.5360989 C25.7116499,19.1566599 25.3399584,19.7162572 24.7696786,19.9538631 C24.1993987,20.1914691 23.5428845,20.0602717 23.106371,19.6214688 C22.6698575,19.1826658 22.5393446,18.5227084 22.7757109,17.9494376 C23.0120772,17.3761667 23.5687548,17.0025258 24.1860781,17.0028018 C25.0283212,17.0031787 25.7110005,17.6894385 25.7113754,18.5360989 Z" id="Path" fill="#049948"></path>
                    <path d="M24.6716469,20.2189025 C24.0615289,20.3945703 23.4046305,20.223744 22.9557939,19.7726952 C22.5069573,19.3216464 22.3368158,18.6613565 22.5113752,18.0479834 C22.670179,17.4686539 23.1198139,17.0156241 23.6957555,16.8546606 C24.30684,16.6772041 24.9655794,16.8477073 25.4154207,17.2997659 C25.8652619,17.7518245 26.0350824,18.4139653 25.8587436,19.0283104 C25.69862,19.6072727 25.2479538,20.0592658 24.6716469,20.2189025 L24.6716469,20.2189025 Z M24.5494058,17.2676814 C24.0902672,17.136501 23.5964624,17.2654962 23.2589439,17.6047848 C22.9214255,17.9440735 22.7931034,18.4404682 22.9235993,18.9020148 C23.0438114,19.3414578 23.3855094,19.6846885 23.8227504,19.805199 C24.2815928,19.9361298 24.7749944,19.807263 25.1124043,19.4683669 C25.4498142,19.1294707 25.578421,18.6335891 25.4485569,18.172231 C25.3291265,17.7320484 24.9872015,17.3880705 24.5494058,17.2676814 L24.5494058,17.2676814 Z" id="Shape" fill="#143038"></path>
                    <path d="M25.8064522,44.180251 C25.8064522,44.8004738 25.4347513,45.3596127 24.8647035,45.5968978 C24.2946556,45.834183 23.6385449,45.7028755 23.2023664,45.264214 C22.766188,44.8255526 22.6358577,44.1659424 22.8721587,43.5930105 C23.1084597,43.0200786 23.6648468,42.6466779 24.2818336,42.6469539 C24.6863604,42.6467727 25.0743608,42.8082796 25.3603408,43.0958875 C25.6463208,43.3834954 25.8068122,43.7736026 25.8064522,44.180251 L25.8064522,44.180251 Z" id="Path" fill="#049948"></path>
                    <path d="M24.2791171,45.9292746 C23.5753323,45.9295506 22.9406939,45.5035898 22.6711768,44.8500465 C22.4016596,44.1965031 22.5503502,43.444105 23.0479041,42.9437462 C23.5454581,42.4433874 24.2938725,42.2936232 24.9441113,42.5642988 C25.59435,42.8349743 26.0183362,43.4727749 26.0183362,44.180251 C26.0172143,45.145476 25.2393057,45.9277699 24.2791171,45.9292746 Z M24.2791171,42.8626804 C23.7489283,42.8624045 23.2707926,43.183245 23.0677078,43.6755654 C22.8646229,44.1678858 22.9765928,44.7347082 23.3513958,45.1116723 C23.7261988,45.4886364 24.2900058,45.6014873 24.7798627,45.3975925 C25.2697197,45.1936977 25.5891341,44.7132206 25.5891341,44.180251 C25.5883862,43.453155 25.0024191,42.8638093 24.2791171,42.8626804 Z" id="Shape" fill="#143038"></path>
                </g>
            </g>
        </g>
    </g>
</svg>